# xmcd CD database file
#
# Track frame offsets:
#	183
#	16383
#	32195
#	55845
#	68158
#	81595
#	93870
#	106483
#	119970
#	134745
#	148308
#	162558
#	177245
#	193745
#	209483
#	229370
#	246158
#	265483
#
# Disc length: 3823 seconds
#
# Revision: 2
# Processed by: cddbd v1.5.1PL2 Copyright (c) Steve Scherf et al.
# Submitted via: CDex 1.51
#
DISCID=240eed12
DTITLE=Various Artist - Rockin' The Country
DYEAR=1991
DGENRE=Country
TTITLE0=Alabama - Feels So Right
TTITLE1=The Judds - Why Not Me
TTITLE2=Dolly Parton - You are
TTITLE3=Patsy Cline - Crazy
TTITLE4=Willie Nelson - I Love You, Because
TTITLE5=Freddy Fender - Wasted Days and Wasted Nights
TTITLE6=Don Williams - You 're My Best Friend
TTITLE7=Waylon Jennings - Amanda
TTITLE8=Ronnie Milsap - (There's) No Gettin' Over Me
TTITLE9=Loretta Lynn - Coal Miner's Daugther
TTITLE10=Dottie West - Desperado
TTITLE11=Everly Brothers - Lay It Down
TTITLE12=Matraca Berg - I Got It Bad
TTITLE13=Steve Wariner - All Roads Lead To You
TTITLE14=Restless Heart - Fast Movin' Train
TTITLE15=Oak Ridge Boys - Elvira
TTITLE16=Poco - Call It Love
TTITLE17=Lynyrd Skynyrd - Sweet Home Alabama
EXTD=YEAR: 1991
EXTT0=
EXTT1=
EXTT2=
EXTT3=
EXTT4=
EXTT5=
EXTT6=
EXTT7=
EXTT8=
EXTT9=
EXTT10=
EXTT11=
EXTT12=
EXTT13=
EXTT14=
EXTT15=
EXTT16=
EXTT17=
PLAYORDER=
